<svg width="76" height="76" viewBox="0 0 76 76" fill="none" xmlns="http://www.w3.org/2000/svg"><g clip-path="url(#clip0)"><path d="M37.7 75.4c20.8211 0 37.7-16.8789 37.7-37.7S58.5211 0 37.7 0 0 16.8789 0 37.7s16.8789 37.7 37.7 37.7z" fill="#CBE5FF"/><path opacity=".35" d="M55.0001 17.5l-29.5 33L50.4999 73c13.6-4.5 23.4002-18.7 25.0002-33.5l-20.5-22z" fill="#588ABC"/><path d="M37.6 33.8c-7.3 0-13.2 5.9-13.2 13.2 0 7.3 5.9 13.2 13.2 13.2 7.3 0 13.1-5.9 13.1-13.2 0-7.3-5.9-13.2-13.1-13.2zm5.6 13.3c-.6.6-1.1 1.4-1.7 1.9.1 1.7.4 3.2.5 4.9-1.6-.6-2.9-1.4-4.5-2-1.6.6-2.9 1.4-4.5 2 .2-1.5.3-3.2.6-4.7-1-1.4-2.4-2.4-3.3-3.9 1.6-.2 3.1-.6 4.7-.8.9-1.4 1.6-3 2.5-4.4.9 1.4 1.6 3 2.5 4.4 1.6.2 3 .6 4.6.8.2.6-.8 1.2-1.4 1.8zM43.7999 31.2H33.7L45 17.7h10.2L43.7999 31.2zM36.1 20.1L31 27.6l-9.5-9.9h10.2l4.4 2.4z" fill="#fff"/></g><defs><clipPath id="clip0"><path fill="#fff" d="M0 0h75.5v75.3H0z"/></clipPath></defs></svg>