<svg width="76" height="76" viewBox="0 0 76 76" fill="none" xmlns="http://www.w3.org/2000/svg"><g clip-path="url(#clip0)"><path d="M37.7835 75.4c20.8211 0 37.7-16.8789 37.7-37.7S58.6046 0 37.7835 0 .083496 16.8789.083496 37.7 16.9624 75.4 37.7835 75.4z" fill="#5295E3"/><path opacity=".5" d="M53.5835 20.5l-12 4.5-17 22v9.5l20.5 18c17.5-2.5 30-20.5 30-32.5l-21.5-21.5z" fill="#325B89"/><path d="M42.8745 36.1298c2.8898-2.8899 2.8899-7.5753 0-10.4651-2.8899-2.8899-7.5752-2.8899-10.4651 0-2.8898 2.8898-2.8898 7.5752 0 10.4651 2.8899 2.8898 7.5752 2.8898 10.4651 0zM24.7834 47.2c0 1.8 1.1 3.3 2.6 3.9.5.2 1 .3 1.5.3h17.5c2.3 0 4.2-1.9 4.2-4.2 0-2-1.4-3.8-3.8-5.1-2.5-1.4-5.7-2.1-9.1-2.1-3.4 0-6.6.7-9.1 2.1-2.5 1.3-3.8 3.1-3.8 5.1z" fill="#fff"/><path d="M34.2835 60.8c1.1.2 2.2.2 3.4.2 3.5 0 6.9-.8 10-2.2l.3 3 5.5-8.6-10 2.3 2.5 1.1c-7.8 3.4-16.9 1.7-23.1-4.4-7-7-8.1-18-2.7-26.3.4-.6.2-1.5-.4-1.9-.6-.4-1.5-.2-1.9.4-6.1 9.3-4.9 21.8 3 29.7 3.7 3.7 8.3 6 13.4 6.7zM29.3835 18.3c7.8-3.4 16.9-1.7 23.1 4.4 7.1 7.1 8.1 18.2 2.6 26.5-.4.6-.3 1.5.4 1.9.2.2.5.2.8.2.4 0 .9-.2 1.1-.6 6.3-9.3 5.1-21.9-2.9-29.9-3.6-3.6-8.2-5.9-13.3-6.7-4.5-.7-9.2 0-13.4 2l-.3-3-5.5 8.6 10-2.3-2.6-1.1z" fill="#fff"/></g><defs><clipPath id="clip0"><path fill="#fff" transform="translate(.083496)" d="M0 0h75.3v75.3H0z"/></clipPath></defs></svg>