<svg width="76" height="76" viewBox="0 0 76 76" fill="none" xmlns="http://www.w3.org/2000/svg"><g clip-path="url(#clip0)"><path d="M37.7835 75.4c20.8211 0 37.7-16.8789 37.7-37.7S58.6046 0 37.7835 0 .083496 16.8789.083496 37.7 16.9624 75.4 37.7835 75.4z" fill="#3A6BA3"/><path opacity=".4" d="M38.0835 18l-2.3 6.1-4.1 9.5-5.1 19.5 24.5 19.3c13.1-4.4 22-16.9 24-28.9l-37-25.5z" fill="#042953"/><path d="M49.9835 53.5c-4-1.5-7.9-3.7-11.9-5.3-3.6 2-7.2 3.5-10.8 5.3-1.1-1.1.1-3.9.3-5.9.2-2.3.2-4.6.6-6.5-2.8-3.5-5.8-5.9-8.6-9.4 4.2-1.3 8.2-1.5 12.4-2.8 2.3-3.6 3.8-7.4 6.3-11 1.9 3.6 4.3 7.2 5.9 10.7 4.2 1.5 8.7 1.4 12.9 2.9-3 3-5.4 6-8.5 8.9 0 4.4 1 8.8 1.4 13.1z" fill="#fff"/></g><defs><clipPath id="clip0"><path fill="#fff" transform="translate(.083496)" d="M0 0h75.3v75.3H0z"/></clipPath></defs></svg>