<svg width="137" height="147" viewBox="0 0 137 147" fill="none" xmlns="http://www.w3.org/2000/svg"><path d="M84 147c46.392 0 84-37.608 84-84 0-46.3919-37.608-84-84-84C37.6081-21 0 16.6081 0 63c0 46.392 37.6081 84 84 84z" fill="#E6E6E6"/><path opacity=".35" d="M117 16L68 62.5l-8.5 33 49 48C143 134 164.8 98.6 168 69l-51-53z" fill="#B2B2B2"/><path d="M116.958 16.0072l-5.932 5.8058 26.302 26.8728 5.932-5.8059-26.302-26.8727zM76.9004 71.4l10 10L123.3 44.8l-9.9-10-36.4996 36.6zM67.7998 61.9l5 5.2L109.4 30.5l-5.1-5.1-36.5002 36.5zM90.2998 85.2l5 5.1L131.9 53.8l-5.1-5.1-36.5002 36.5z" fill="#fff"/><path d="M61.8998 94.9l-2.6-.6 8.4-33.1 3.5 2.2-9.3 31.5z" fill="#fff"/><path d="M59 95.3l.8-3.2 32.8-4.6 2.6 2.8-36.2 5z" fill="#fff"/><path d="M72.2996 91.4l-10.7 1.3 1.6-8.3 2-1.3 7.1 8.3z" fill="#fff"/></svg>