<svg width="137" height="147" viewBox="0 0 137 147" fill="none" xmlns="http://www.w3.org/2000/svg">
<path d="M84 147C130.392 147 168 109.392 168 63C168 16.6081 130.392 -21 84 -21C37.6081 -21 0 16.6081 0 63C0 109.392 37.6081 147 84 147Z" fill="#CBE5FF"/>
<path opacity="0.35" d="M117 16L68 62.5L59.5 95.5L108.5 143.5C143 134 164.8 98.6 168 69L117 16Z" fill="#588ABC"/>
<path d="M116.958 16.0072L111.026 21.813L137.328 48.6858L143.26 42.8799L116.958 16.0072Z" fill="white"/>
<path d="M76.9004 71.4L86.9004 81.4L123.3 44.8L113.4 34.8L76.9004 71.4Z" fill="white"/>
<path d="M67.7998 61.9L72.7998 67.1L109.4 30.5L104.3 25.4L67.7998 61.9Z" fill="white"/>
<path d="M90.2998 85.2L95.2998 90.3L131.9 53.8L126.8 48.7L90.2998 85.2Z" fill="white"/>
<path d="M61.8998 94.9L59.2998 94.3L67.6998 61.2L71.1998 63.4L61.8998 94.9Z" fill="white"/>
<path d="M59 95.3L59.8 92.1L92.6 87.5L95.2 90.3L59 95.3Z" fill="white"/>
<path d="M72.2996 91.4L61.5996 92.7L63.1996 84.4L65.1996 83.1L72.2996 91.4Z" fill="white"/>
</svg>
