<svg width="81" height="55" viewBox="0 0 81 55" fill="none" xmlns="http://www.w3.org/2000/svg">
<g clip-path="url(#clip0)">
<path d="M63.2462 6.53128e-07C66.603 0.0001458 69.8995 0.885953 72.7983 2.56678C75.6971 4.2476 78.0943 6.6631 79.7444 9.56608C87.0437 22.9348 59.9905 15.681 64.2883 45.6666C64.7171 51.1132 67.7285 55 63.2412 55C52.771 55 44.295 29.1884 44.295 18.8054C44.2977 13.8161 46.2957 9.03216 49.8495 5.50561C53.4034 1.97907 58.2223 -0.001313 63.2462 6.53128e-07Z" fill="#F2505D"/>
<path d="M18.9363 6.53128e-07C22.293 0.0001458 25.5895 0.885953 28.4883 2.56678C31.3872 4.2476 33.7843 6.6631 35.4344 9.56608C42.7337 22.9348 15.6805 15.681 19.9783 45.6666C20.4021 51.1132 23.4135 55 18.9313 55C8.461 55 -0.0149307 29.1884 -0.0149307 18.8054C-0.0122871 13.8161 1.98568 9.03216 5.53957 5.50561C9.09346 1.97907 13.9123 -0.001313 18.9363 6.53128e-07Z" fill="#F2505D"/>
</g>
<defs>
<clipPath id="clip0">
<rect width="81" height="55" fill="white" transform="matrix(-1 0 0 1 81 0)"/>
</clipPath>
</defs>
</svg>
