<svg width="256" height="261" viewBox="0 0 256 261" fill="none" xmlns="http://www.w3.org/2000/svg"><g clip-path="url(#clip0)"><path d="M175 254c88.366 0 160-72.306 160-161.5C335 3.30602 263.366-69 175-69 86.6344-69 15 3.30602 15 92.5 15 181.694 86.6344 254 175 254z" fill="#CBE5FF"/><path opacity=".3" d="M209.817 30.574L99.6801 49.0189 87.6895 175.13 199.058 251.5c78.166-14 110.681-69.506 117.787-132.562L209.817 30.574z" fill="#5295E3"/><path d="M205.378 176.846c4.885 0 8.882-3.861 8.882-8.579V36.579c0-4.7184-4.885-8.579-10.658-8.579H94.7971c-5.7733 0-10.6584 3.8606-10.6584 8.579v131.259c0 4.718 3.9969 8.579 8.882 8.579H205.378v.429zm-87.932-21.019H98.3499v-17.158h19.0961v17.158zm.444-30.026H98.794v-17.158h19.096v17.158zm0-29.1689H98.794v-17.158h19.096v17.158zm26.202 59.1949h-19.096v-17.158h19.096v17.158zm.444-30.026H125.44v-17.158h19.096v17.158zm0-29.1689H125.44v-17.158h19.096v17.158zm26.202 59.1949h-19.096v-17.158h19.096v17.158zm.888-30.026H152.53v-17.158h19.096v17.158zm0-29.1689H152.53v-17.158h19.096v17.158zm26.646 59.1949h-19.096v-17.158h19.096v17.158zm.889-30.026h-19.097v-17.158h19.097v17.158zm0-29.1689h-19.097v-17.158h19.097v17.158zm.888-30.0265H98.3499V49.4475H200.049v17.1581z" fill="#fff"/></g><defs><clipPath id="clip0"><rect x=".277344" width="255.723" height="261" rx="5" fill="#fff"/></clipPath></defs></svg>