<svg width="256" height="261" viewBox="0 0 256 261" fill="none" xmlns="http://www.w3.org/2000/svg">
<g clip-path="url(#clip0)">
<path d="M175 254C263.366 254 335 181.694 335 92.5C335 3.30602 263.366 -69 175 -69C86.6344 -69 15 3.30602 15 92.5C15 181.694 86.6344 254 175 254Z" fill="#CBE5FF"/>
<path opacity="0.3" d="M209.817 30.574L99.6801 49.0189L87.6895 175.13L199.058 251.5C277.224 237.5 309.739 181.994 316.845 118.938L209.817 30.574Z" fill="#5295E3"/>
<path d="M205.377 176.846C210.262 176.846 214.259 172.985 214.259 168.267V36.579C214.259 31.8606 209.374 28 203.601 28H94.7961C89.0228 28 84.1377 31.8606 84.1377 36.579V167.838C84.1377 172.556 88.1346 176.417 93.0197 176.417H205.377V176.846ZM117.445 155.827H98.3489V138.669H117.445V155.827ZM117.889 125.801H98.793V108.643H117.889V125.801ZM117.889 96.6321H98.793V79.4741H117.889V96.6321ZM144.091 155.827H124.995V138.669H144.091V155.827ZM144.535 125.801H125.439V108.643H144.535V125.801ZM144.535 96.6321H125.439V79.4741H144.535V96.6321ZM170.737 155.827H151.641V138.669H170.737V155.827ZM171.625 125.801H152.529V108.643H171.625V125.801ZM171.625 96.6321H152.529V79.4741H171.625V96.6321ZM198.271 155.827H179.175V138.669H198.271V155.827ZM199.16 125.801H180.063V108.643H199.16V125.801ZM199.16 96.6321H180.063V79.4741H199.16V96.6321ZM200.048 66.6056H98.3489V49.4475H200.048V66.6056Z" fill="white"/>
</g>
<defs>
<clipPath id="clip0">
<rect x="0.277344" width="255.723" height="261" rx="5" fill="white"/>
</clipPath>
</defs>
</svg>
