<svg width="21" height="22" viewBox="0 0 21 22" fill="none" xmlns="http://www.w3.org/2000/svg">
<path d="M17.5916 7.13981C17.7016 6.77323 17.7565 6.40666 17.8115 6.04008C17.9764 3.42169 15.9424 1.16987 13.1937 1.01276C10.9948 0.855661 9.01571 2.16486 8.30105 4.0501C7.69633 3.63116 6.98168 3.36932 6.21204 3.36932C4.28796 3.36932 2.69372 4.88799 2.69372 6.72086C2.69372 6.9827 2.74869 7.29691 2.80366 7.55875C1.20942 7.76822 0 9.12979 0 10.7532C0 12.5337 1.48429 14 3.29843 14C3.51832 14 3.73822 14 3.90314 13.9476H16.767C16.9869 14 17.2068 14 17.4267 14C19.4058 14 21 12.4813 21 10.5437C21 8.76321 19.4607 7.24454 17.5916 7.13981Z" fill="#5295E3"/>
<path d="M12.2012 16.2222V13H8.79878V16.1667H6L10.3902 21L15 16.2222H12.2012Z" fill="#5295E3"/>
</svg>
