<svg width="74" height="20" viewBox="0 0 74 20" fill="none" xmlns="http://www.w3.org/2000/svg">
<path fill-rule="evenodd" clip-rule="evenodd" d="M11.2801 6.37982L10.4718 7.95682L10.4724 7.95462L9.63906 6.37763C9.61378 6.32768 9.54825 6.26538 9.45808 6.37833L9.45907 6.37708C9.239 6.62941 8.9608 6.82585 8.64788 6.9499C8.33496 7.07395 7.99646 7.12197 7.66084 7.08993C7.32522 7.05788 7.00229 6.94671 6.71922 6.76576C6.43614 6.58481 6.20119 6.33937 6.03413 6.05008C5.86706 5.76079 5.77276 5.43611 5.75916 5.10334C5.74555 4.77056 5.81304 4.43943 5.95595 4.13777C6.09886 3.83612 6.31301 3.57277 6.58039 3.36987C6.84778 3.16696 7.16057 3.03044 7.49249 2.97177L7.41971 2.9811C6.85918 2.55804 6.43364 2.52512 6.31587 2.57999C4.69316 3.29771 4.34484 5.42671 6.2531 7.5184C6.2599 7.52808 6.26337 7.53966 6.26299 7.55144C6.26261 7.56322 6.2584 7.57457 6.25099 7.5838C6.24357 7.59303 6.23334 7.59966 6.22182 7.60271C6.21029 7.60575 6.19808 7.60505 6.18699 7.6007C3.55936 6.24811 3.99485 3.5166 4.20461 2.20095V2.20095L4.20461 2.20094C4.2537 1.89301 4.29043 1.66264 4.27263 1.54567C4.20617 1.10515 3.95031 0.695746 3.77351 0.41287C3.73009 0.343397 3.69144 0.281556 3.66154 0.22876C3.64772 0.204688 3.64075 0.177365 3.6414 0.149697C3.64204 0.122029 3.65027 0.095051 3.6652 0.071633C3.68013 0.0482151 3.70121 0.0292332 3.7262 0.0167068C3.75118 0.00418035 3.77914 -0.00142206 3.80709 0.000495568C4.04996 0.0157153 4.46822 0.274065 5.0318 0.622175C6.25626 1.37849 8.16667 2.55851 10.4546 2.58932C12.7431 2.5585 14.6544 1.37789 15.8788 0.621601C16.4419 0.273781 16.8597 0.0157069 17.1021 0.000495568C17.1307 -0.00178555 17.1594 0.00383875 17.185 0.0167406C17.2106 0.0296425 17.232 0.0493143 17.247 0.0735599C17.2619 0.0978055 17.2697 0.125671 17.2695 0.154045C17.2693 0.18242 17.2612 0.210187 17.246 0.234247C17.217 0.285084 17.1797 0.344684 17.1378 0.411687L17.1376 0.412021L17.1375 0.412045C16.9609 0.694335 16.7022 1.10788 16.6349 1.55116C16.6172 1.66728 16.6538 1.89648 16.7027 2.2031L16.7027 2.20313C16.9123 3.51635 17.3485 6.24969 14.7211 7.6029C14.71 7.60724 14.6978 7.60795 14.6862 7.6049C14.6747 7.60186 14.6645 7.59523 14.6571 7.586C14.6496 7.57676 14.6454 7.56542 14.6451 7.55364C14.6447 7.54186 14.6481 7.53027 14.655 7.52059C16.5632 5.42945 16.2149 3.30045 14.5922 2.58219C14.4744 2.53006 14.0489 2.56024 13.4883 2.98329L13.4594 2.97945C13.7893 3.04282 14.0989 3.18321 14.3626 3.38889C14.6263 3.59457 14.8363 3.85958 14.9751 4.16178C15.1139 4.46399 15.1776 4.79461 15.1607 5.12605C15.1437 5.45749 15.0468 5.78012 14.8779 6.067C14.709 6.35389 14.4731 6.5967 14.1898 6.77515C13.9065 6.95361 13.5841 7.06253 13.2496 7.09283C12.915 7.12312 12.5779 7.07391 12.2665 6.9493C11.9551 6.82469 11.6784 6.6283 11.4595 6.37653L11.4668 6.38421C11.3751 6.26624 11.3051 6.33099 11.2801 6.37982ZM8.58742 3.91799C8.31175 3.76488 7.99486 3.69982 7.68026 3.73174C7.32984 3.76729 7.00255 3.92105 6.75352 4.16713C6.50449 4.4132 6.34894 4.73654 6.31309 5.08267C6.28091 5.39342 6.34691 5.7064 6.50203 5.97862C6.65714 6.25084 6.89378 6.46896 7.17943 6.60302C7.46508 6.73708 7.78575 6.78051 8.09739 6.72735C8.40904 6.67419 8.69638 6.52704 8.91997 6.30611C9.14355 6.08518 9.29241 5.80131 9.3461 5.49347C9.3998 5.18563 9.3557 4.86891 9.21986 4.58682C9.08401 4.30473 8.86309 4.07109 8.58742 3.91799ZM14.3677 5.97635C14.5224 5.7038 14.5878 5.39066 14.555 5.07992C14.5183 4.73408 14.3623 4.41123 14.113 4.1657C13.8637 3.92017 13.5364 3.76692 13.1861 3.73174C12.8714 3.70022 12.5546 3.76571 12.2791 3.91921C12.0036 4.07271 11.783 4.30669 11.6475 4.58902C11.5121 4.87134 11.4685 5.18817 11.5227 5.49597C11.5768 5.80377 11.7262 6.08745 11.9502 6.30805C12.1741 6.52865 12.4618 6.67534 12.7735 6.72799C13.0853 6.78063 13.406 6.73664 13.6914 6.60205C13.9769 6.46747 14.2131 6.24889 14.3677 5.97635ZM6.28695 19.1068C6.92701 19.3875 7.59379 19.6044 8.27742 19.7543C8.61926 18.5223 9.08063 17.3256 9.65514 16.1811C10.7776 13.9543 12.3082 11.9523 14.1694 10.2764H11.2217C9.66358 11.9795 8.3828 13.9113 7.42523 16.0028L7.38857 16.0856C6.94763 17.065 6.57945 18.0747 6.28695 19.1068ZM6.34917 14.7117C6.74391 13.9157 7.18365 13.1422 7.66633 12.395H7.66189C6.94299 11.8722 6.42261 11.1262 6.18418 10.2764H3.41818C3.56308 11.1779 3.89907 12.0389 4.40416 12.8032C4.90924 13.5675 5.57204 14.2178 6.34917 14.7117ZM8.46122 11.2351L8.46408 11.2372H8.45963L8.46122 11.2351ZM9.20627 10.2764C8.94833 10.5896 8.69998 10.9091 8.46122 11.2351C8.12754 10.9828 7.86148 10.6537 7.68633 10.2764H9.20627ZM1.86103 10.2764H0C0.118407 11.9106 0.623414 13.4946 1.47441 14.901C2.32541 16.3073 3.49865 17.4968 4.89979 18.3738C5.12979 17.6055 5.39939 16.8493 5.70753 16.1081C4.66263 15.4855 3.77386 14.6375 3.10774 13.6276C2.44162 12.6177 2.01542 11.4721 1.86103 10.2764ZM11.0301 16.856C10.5273 17.8563 10.1182 18.8999 9.80791 19.9738C10.059 19.9917 10.312 20.0007 10.5668 20.0007C11.0525 20.0006 11.5377 19.9676 12.0189 19.9019C12.7194 17.8148 13.8364 15.8876 15.3039 14.2342C16.7715 12.5808 18.5597 11.2348 20.563 10.2759H16.5732C14.2332 12.0144 12.3354 14.2673 11.0301 16.856ZM20.9091 11.8024C17.6811 13.4424 15.1585 16.1751 13.8022 19.5008V19.5014C15.5625 18.9397 17.1441 17.934 18.3905 16.5838C19.6369 15.2336 20.505 13.5855 20.9091 11.8024ZM48.5743 14.7601C49.3023 14.9655 50.0536 15.0681 50.8283 15.0681C51.7243 15.0681 52.4849 14.9328 53.1103 14.6621C53.7356 14.3915 54.2023 14.0275 54.5103 13.5701C54.8276 13.1035 54.9863 12.5901 54.9863 12.0301C54.9863 11.3768 54.8136 10.8588 54.4683 10.4761C54.1323 10.0935 53.7263 9.81346 53.2503 9.63613C52.7743 9.4588 52.1629 9.28146 51.4163 9.10413C50.6976 8.94546 50.1609 8.7868 49.8063 8.62813C49.4609 8.46013 49.2883 8.20813 49.2883 7.87213C49.2883 7.53613 49.4376 7.26546 49.7363 7.06013C50.0443 6.8548 50.5156 6.75213 51.1503 6.75213C52.0556 6.75213 52.9609 7.0088 53.8663 7.52213L54.5663 5.80013C54.1183 5.52013 53.5956 5.30546 52.9983 5.15613C52.4009 5.0068 51.7896 4.93213 51.1643 4.93213C50.2683 4.93213 49.5076 5.06746 48.8823 5.33813C48.2663 5.6088 47.8043 5.97746 47.4963 6.44413C47.1883 6.90146 47.0343 7.4148 47.0343 7.98413C47.0343 8.63746 47.2023 9.16013 47.5383 9.55213C47.8836 9.94413 48.2943 10.2288 48.7703 10.4061C49.2463 10.5835 49.8576 10.7608 50.6043 10.9381C51.0896 11.0501 51.4723 11.1528 51.7523 11.2461C52.0416 11.3395 52.2749 11.4655 52.4523 11.6241C52.6389 11.7735 52.7323 11.9648 52.7323 12.1981C52.7323 12.5155 52.5783 12.7721 52.2703 12.9681C51.9623 13.1548 51.4863 13.2481 50.8423 13.2481C50.2636 13.2481 49.6849 13.1548 49.1063 12.9681C48.5276 12.7815 48.0283 12.5341 47.6083 12.2261L46.8383 13.9341C47.2769 14.2701 47.8556 14.5455 48.5743 14.7601ZM35.8971 5.10013V14.9001H34.0351L29.1491 8.95013V14.9001H26.9091V5.10013H28.7851L33.6571 11.0501V5.10013H35.8971ZM45.8037 13.0801V14.9001H38.2157V5.10013H45.6217V6.92013H40.4697V9.04813H45.0197V10.8121H40.4697V13.0801H45.8037ZM58.4293 6.94813H55.2933V5.10013H63.8333V6.94813H60.6973V14.9001H58.4293V6.94813ZM69.2461 5H65.9545V5.82892H67.1295V9H68.0628V5.82892H69.2461V5ZM73.0711 6.71566L73.0795 9H73.9545L73.9378 5H73.1795L71.8295 7.40964L70.4461 5H69.6795V9H70.5545V6.77349L71.6045 8.58554H72.0211L73.0711 6.71566Z" fill="#E6E6E6"/>
</svg>
