<svg width="14" height="16" viewBox="0 0 14 16" fill="none" xmlns="http://www.w3.org/2000/svg">
<path d="M14 0.567409V14.8632C14 15.1647 13.8713 15.4538 13.6422 15.667C13.4131 15.8802 13.1023 16 12.7783 16H0.609989C0.495044 15.9998 0.382477 15.9695 0.285226 15.9125C0.187974 15.8555 0.109985 15.7741 0.0602195 15.6777C0.0104543 15.5813 -0.00906708 15.4737 0.00389937 15.3675C0.0168658 15.2612 0.0617939 15.1605 0.13352 15.0769L12.9127 0.212715C12.9918 0.120962 13.0995 0.0543069 13.2211 0.0219404C13.3426 -0.0104261 13.4719 -0.00690923 13.5912 0.032006C13.7105 0.0709213 13.8139 0.143318 13.8871 0.239213C13.9603 0.335108 13.9998 0.449777 14 0.567409Z" fill="#ED3030"/>
</svg>
