<svg width="18" height="18" viewBox="0 0 18 18" fill="none" xmlns="http://www.w3.org/2000/svg"><path d="M16.5001 12.6901v2.25c.0008.2089-.042.4156-.1256.607-.0837.1914-.2065.3632-.3604.5044-.1539.1412-.3356.2487-.5335.3156-.1978.0669-.4075.0918-.6155.073-2.3079-.2508-4.5248-1.0394-6.47253-2.3025-1.81213-1.1515-3.3485-2.6879-4.5-4.50003-1.26751-1.95659-2.05632-4.18425-2.3025-6.5025a1.500011 1.500011 0 01.38608-1.14628 1.49996 1.49996 0 011.10642-.48872h2.25c.36398-.00358.71685.12531.99282.36265.27598.23734.45624.56694.50718.92735a9.63025 9.63025 0 00.525 2.1075c.10091.26845.12275.56019.06293.84066a1.499954 1.499954 0 01-.40043.74184l-.9525.9525c1.06767 1.87766 2.62234 3.43233 4.50003 4.50003l.9525-.9525c.2039-.2017.4613-.3406.7418-.4005.2805-.0598.5722-.0379.8407.063.6804.2539 1.3874.43 2.1075.525.3643.0514.697.2349.9349.5156.2378.2807.3642.6391.3551 1.0069z" stroke="#F2505D" stroke-width="1.5" stroke-linecap="round" stroke-linejoin="round"/></svg>